<svg xmlns="http://www.w3.org/2000/svg" width="920" height="525" viewBox="0 0 920 525"><defs><style type="text/css"/></defs><g transform="translate(368.1386614004008 106.78893813298006) scale(1)"><g class="relationship"><g transform="translate(121.35650138142552 9.609041613466593) rotate(180)" stroke-width="5" stroke="#000000"><path d="M 59 0 L 298.4334699176313 0"/><polygon points="-24.8621506177483,0 -27.62461179749811,9.20820393249937 0,0 -27.62461179749811,-9.20820393249937" fill="#000000" transform="translate(323.29562053537967 0) rotate(0)" stroke="none"/></g><g transform="translate(-57.36023357739015 9.609041613466614) rotate(360) translate(0 -13)"><g transform="translate(0 0)"><g transform="translate(-59.0859375 0)" fill="#ffffff" stroke="#000000" stroke-width="0"><rect x="0" y="0" width="118.171875" height="26" rx="5" ry="5" stroke="none"/><text xml:space="preserve" x="5" y="17.5" stroke="none" text-anchor="left" font-family="sans-serif" font-size="16" font-weight="normal" fill="#000000">DETAILS_FOR</text></g></g></g></g><g class="relationship"><g transform="translate(121.35650138142552 9.609041613466593) rotate(0)" stroke-width="5" stroke="#000000"><path d="M 59 0 L 232.43346991763136 0"/><polygon points="-24.8621506177483,0 -27.62461179749811,9.20820393249937 0,0 -27.62461179749811,-9.20820393249937" fill="#000000" transform="translate(257.29562053537967 0) rotate(0)" stroke="none"/></g><g transform="translate(267.0732363402412 9.609041613466593) rotate(0) translate(0 -13)"><g transform="translate(0 0)"><g transform="translate(-61.75 0)" fill="#ffffff" stroke="#000000" stroke-width="0"><rect x="0" y="0" width="123.5" height="26" rx="5" ry="5" stroke="none"/><text xml:space="preserve" x="5" y="17.5" stroke="none" text-anchor="left" font-family="sans-serif" font-size="16" font-weight="normal" fill="#000000">BOARDING_AT</text></g></g></g></g><g class="relationship"><g transform="translate(-260.93911915395415 9.609041613466593) rotate(40.40766439643323)" stroke-width="5" stroke="#000000"><path d="M 59 0 L 454.8651110248768 0"/><polygon points="-24.8621506177483,0 -27.62461179749811,9.20820393249937 0,0 -27.62461179749811,-9.20820393249937" fill="#000000" transform="translate(479.7272616426251 0) rotate(0)" stroke="none"/></g><g transform="translate(-65.29741304953126 176.1583163483115) rotate(40.40766439643323) translate(0 -32.2)"><g transform="translate(0 0)"><g transform="translate(-63.5390625 0)" fill="#ffffff" stroke="#000000" stroke-width="0"><rect x="0" y="0" width="127.078125" height="26" rx="5" ry="5" stroke="none"/><text xml:space="preserve" x="5" y="17.5" stroke="none" text-anchor="left" font-family="sans-serif" font-size="16" font-weight="normal" fill="#000000">TRAVELLED_IN</text></g></g><g transform="translate(0 26)"><g transform="translate(-38.6796875 0)" fill="white"><rect x="0" y="0" width="77.359375" height="38.4" rx="0" ry="0" stroke="none"/><g font-family="sans-serif" font-size="16" font-weight="normal" fill="#000000" text-anchor="end"><text xml:space="preserve" x="68.46875" y="14.1" stroke="none">survived:</text><text xml:space="preserve" x="72.9140625" y="14.1" stroke="none" text-anchor="start"></text><text xml:space="preserve" x="68.46875" y="33.3" stroke="none" text-anchor="end">lifeboat:</text><text xml:space="preserve" x="72.9140625" y="33.3" stroke="none" text-anchor="start"></text></g></g></g></g></g><g class="relationship"><g transform="translate(-260.93911915395415 358.8237782493795) rotate(-90)" stroke-width="5" stroke="#000000"><path d="M 59 0 L 265.3525860181645 0"/><polygon points="-24.8621506177483,0 -27.62461179749811,9.20820393249937 0,0 -27.62461179749811,-9.20820393249937" fill="#000000" transform="translate(290.21473663591286 0) rotate(0)" stroke="none"/></g><g transform="translate(-260.93911915395415 196.64748524029721) rotate(90) translate(0 -13)"><g transform="translate(0 0)"><g transform="translate(-67.390625 0)" fill="#ffffff" stroke="#000000" stroke-width="0"><rect x="0" y="0" width="134.78125" height="26" rx="5" ry="5" stroke="none"/><text xml:space="preserve" x="5" y="17.5" stroke="none" text-anchor="left" font-family="sans-serif" font-size="16" font-weight="normal" fill="#000000">ALLOCATED_TO</text></g></g></g></g><g class="relationship"><g transform="translate(-260.93911915395415 358.8237782493795) rotate(0)" stroke-width="5" stroke="#000000"><path d="M 59 0 L 326.35258601816463 0"/><polygon points="-24.8621506177483,0 -27.62461179749811,9.20820393249937 0,0 -27.62461179749811,-9.20820393249937" fill="#000000" transform="translate(351.2147366359129 0) rotate(0)" stroke="none"/></g><g transform="translate(-68.26282614487184 358.8237782493795) rotate(0) translate(0 -13)"><g transform="translate(0 0)"><g transform="translate(-59.09375 0)" fill="#ffffff" stroke="#000000" stroke-width="0"><rect x="0" y="0" width="118.1875" height="26" rx="5" ry="5" stroke="none"/><text xml:space="preserve" x="5" y="17.5" stroke="none" text-anchor="left" font-family="sans-serif" font-size="16" font-weight="normal" fill="#000000">BELONGS_TO</text></g></g></g></g><g class="node"><g fill="#ffffff" stroke="#000000" stroke-width="4"><circle cx="-260.93911915395415" cy="9.609041613466593" r="52"/></g><g transform="translate(-260.93911915395415 9.609041613466593)"><g transform="scale(0.35841505814443514) translate(0 -27)"><g transform="translate(0 0)"><g transform="translate(-122.615234375 0)"><g fill="#ffffff" stroke="#000000" stroke-width="4"><rect x="0" y="0" width="245.23046875" height="54" rx="27" ry="27"/><text xml:space="preserve" x="27" y="37.5" stroke="none" font-family="sans-serif" font-size="40" font-weight="normal" fill="#000000">Passenger</text></g></g></g></g><g transform="translate(-39.597979746446654 -116.39797974644665)"><g transform="translate(0 0)"><g transform="translate(-67.6015625 0)" fill="white"><rect x="0" y="0" width="67.6015625" height="76.8" rx="0" ry="0" stroke="none"/><g font-family="sans-serif" font-size="16" font-weight="normal" fill="#000000" text-anchor="end"><text xml:space="preserve" x="58.7109375" y="14.1" stroke="none">Id:</text><text xml:space="preserve" x="63.15625" y="14.1" stroke="none" text-anchor="start"></text><text xml:space="preserve" x="58.7109375" y="33.3" stroke="none" text-anchor="end">name:</text><text xml:space="preserve" x="63.15625" y="33.3" stroke="none" text-anchor="start"></text><text xml:space="preserve" x="58.7109375" y="52.5" stroke="none" text-anchor="end">gender:</text><text xml:space="preserve" x="63.15625" y="52.5" stroke="none" text-anchor="start"></text><text xml:space="preserve" x="58.7109375" y="71.7" stroke="none" text-anchor="end">age:</text><text xml:space="preserve" x="63.15625" y="71.7" stroke="none" text-anchor="start"></text></g></g></g></g></g></g><g class="node"><g fill="#ffffff" stroke="#000000" stroke-width="4"><circle cx="121.35650138142552" cy="9.609041613466593" r="52"/></g><g transform="translate(121.35650138142552 9.609041613466593)"><g transform="scale(0.5353810327748044) translate(0 -27)"><g transform="translate(0 0)"><g transform="translate(-79.59765625 0)"><g fill="#ffffff" stroke="#000000" stroke-width="4"><rect x="0" y="0" width="159.1953125" height="54" rx="27" ry="27"/><text xml:space="preserve" x="27" y="37.5" stroke="none" font-family="sans-serif" font-size="40" font-weight="normal" fill="#000000">Ticket</text></g></g></g></g><g transform="translate(3.429011037612589e-15 -94.4)"><g transform="translate(0 0)"><g transform="translate(-36.4609375 0)" fill="white"><rect x="0" y="0" width="72.921875" height="38.4" rx="0" ry="0" stroke="none"/><g font-family="sans-serif" font-size="16" font-weight="normal" fill="#000000" text-anchor="end"><text xml:space="preserve" x="64.03125" y="14.1" stroke="none">ticketno:</text><text xml:space="preserve" x="68.4765625" y="14.1" stroke="none" text-anchor="start"></text><text xml:space="preserve" x="64.03125" y="33.3" stroke="none" text-anchor="end">fare:</text><text xml:space="preserve" x="68.4765625" y="33.3" stroke="none" text-anchor="start"></text></g></g></g></g></g></g><g class="node"><g fill="#ffffff" stroke="#000000" stroke-width="4"><circle cx="437.6521219168052" cy="9.609041613466593" r="52"/></g><g transform="translate(437.6521219168052 9.609041613466593)"><g transform="scale(0.6505973219788599) translate(0 -27)"><g transform="translate(0 0)"><g transform="translate(-63.6796875 0)"><g fill="#ffffff" stroke="#000000" stroke-width="4"><rect x="0" y="0" width="127.359375" height="54" rx="27" ry="27"/><text xml:space="preserve" x="27" y="37.5" stroke="none" font-family="sans-serif" font-size="40" font-weight="normal" fill="#000000">Port</text></g></g></g></g><g transform="translate(56 -9.6)"><g transform="translate(0 0)"><g transform="translate(0 0)" fill="white"><rect x="0" y="0" width="57.8046875" height="19.2" rx="0" ry="0" stroke="none"/><g font-family="sans-serif" font-size="16" font-weight="normal" fill="#000000" text-anchor="end"><text xml:space="preserve" x="48.9140625" y="14.1" stroke="none">name:</text><text xml:space="preserve" x="53.359375" y="14.1" stroke="none" text-anchor="start"></text></g></g></g></g></g></g><g class="node"><g fill="#ffffff" stroke="#000000" stroke-width="4"><circle cx="149.27561748195876" cy="358.8237782493795" r="52"/></g><g transform="translate(149.27561748195876 358.8237782493795)"><g transform="scale(0.5514315006713292) translate(0 -27)"><g transform="translate(0 0)"><g transform="translate(-77.009765625 0)"><g fill="#ffffff" stroke="#000000" stroke-width="4"><rect x="0" y="0" width="154.01953125" height="54" rx="27" ry="27"/><text xml:space="preserve" x="27" y="37.5" stroke="none" font-family="sans-serif" font-size="40" font-weight="normal" fill="#000000">Class</text></g></g></g></g><g transform="translate(56 -9.6)"><g transform="translate(0 0)"><g transform="translate(0 0)" fill="white"><rect x="0" y="0" width="52.4765625" height="19.2" rx="0" ry="0" stroke="none"/><g font-family="sans-serif" font-size="16" font-weight="normal" fill="#000000" text-anchor="end"><text xml:space="preserve" x="43.5859375" y="14.1" stroke="none">code:</text><text xml:space="preserve" x="48.03125" y="14.1" stroke="none" text-anchor="start"></text></g></g></g></g></g></g><g class="node"><g fill="#ffffff" stroke="#000000" stroke-width="4"><circle cx="-260.93911915395415" cy="358.8237782493795" r="52"/></g><g transform="translate(-260.93911915395415 358.8237782493795)"><g transform="scale(0.5374502733764049) translate(0 -27)"><g transform="translate(0 0)"><g transform="translate(-79.255859375 0)"><g fill="#ffffff" stroke="#000000" stroke-width="4"><rect x="0" y="0" width="158.51171875" height="54" rx="27" ry="27"/><text xml:space="preserve" x="27" y="37.5" stroke="none" font-family="sans-serif" font-size="40" font-weight="normal" fill="#000000">Cabin</text></g></g></g></g><g transform="translate(-39.597979746446654 39.59797974644666)"><g transform="translate(0 0)"><g transform="translate(-57.8046875 0)" fill="white"><rect x="0" y="0" width="57.8046875" height="19.2" rx="0" ry="0" stroke="none"/><g font-family="sans-serif" font-size="16" font-weight="normal" fill="#000000" text-anchor="end"><text xml:space="preserve" x="48.9140625" y="14.1" stroke="none">name:</text><text xml:space="preserve" x="53.359375" y="14.1" stroke="none" text-anchor="start"></text></g></g></g></g></g></g></g></svg>